HIERARCHY
ROOT Hips
{
  OFFSET 5.84602e-005 68.8428 3.50346
  CHANNELS 6 Xposition Yposition Zposition Zrotation Xrotation Yrotation
  JOINT Spine
  {
    OFFSET 0 8.597 -4.6522
    CHANNELS 3 Zrotation Xrotation Yrotation
    JOINT Spine1
    {
      OFFSET 0 7.8454 0.4098
      CHANNELS 3 Zrotation Xrotation Yrotation
      JOINT Spine2
      {
        OFFSET 0 9.7078 -2.1609
        CHANNELS 3 Zrotation Xrotation Yrotation
        JOINT Neck
        {
          OFFSET 0 21.8761 -0.4549
          CHANNELS 3 Zrotation Xrotation Yrotation
          JOINT Head
          {
            OFFSET 0 12.3537 3.3602
            CHANNELS 3 Zrotation Xrotation Yrotation
            End Site
            {
              OFFSET 0.0001 18.9506 0.5657
            }
          }
        }
        JOINT LeftShoulder
        {
          OFFSET 2.2086 21.1115 7.2329
          CHANNELS 3 Zrotation Xrotation Yrotation
          JOINT LeftArm
          {
            OFFSET 13.1193 3.0282 -4.8998
            CHANNELS 3 Zrotation Xrotation Yrotation
            JOINT LeftForeArm
            {
              OFFSET 27.4081 -0.0973053 -0.2375
              CHANNELS 3 Zrotation Xrotation Yrotation
              JOINT LeftHand
              {
                OFFSET 22.8641 0.0662994 -0.1369
                CHANNELS 3 Zrotation Xrotation Yrotation
                JOINT LeftHandIndex1
                {
                  OFFSET 8.8614 0.775009 2.4612
                  CHANNELS 3 Zrotation Xrotation Yrotation
                  JOINT LeftHandIndex2
                  {
                    OFFSET 3.3146 -0.808304 0.5841
                    CHANNELS 3 Zrotation Xrotation Yrotation
                    JOINT LeftHandIndex3
                    {
                      OFFSET 2.2628 -0.552002 0.3989
                      CHANNELS 3 Zrotation Xrotation Yrotation
                      End Site
                      {
                        OFFSET 1.6102 -0.4807 0.2612
                      }
                    }
                  }
                }
                JOINT LeftHandMiddle1
                {
                  OFFSET 8.9937 0.895004 0.2143
                  CHANNELS 3 Zrotation Xrotation Yrotation
                  JOINT LeftHandMiddle2
                  {
                    OFFSET 4.0984 0.0113983 -0.0242
                    CHANNELS 3 Zrotation Xrotation Yrotation
                    JOINT LeftHandMiddle3
                    {
                      OFFSET 2.2716 0.00689697 -0.0138001
                      CHANNELS 3 Zrotation Xrotation Yrotation
                      End Site
                      {
                        OFFSET 2.0404 -0.1441 0.0027
                      }
                    }
                  }
                }
                JOINT LeftHandRing1
                {
                  OFFSET 8.5234 0.597198 -2.0164
                  CHANNELS 3 Zrotation Xrotation Yrotation
                  JOINT LeftHandRing2
                  {
                    OFFSET 3.7188 -0.188293 -0.2328
                    CHANNELS 3 Zrotation Xrotation Yrotation
                    JOINT LeftHandRing3
                    {
                      OFFSET 2.1191 -0.106598 -0.1332
                      CHANNELS 3 Zrotation Xrotation Yrotation
                      End Site
                      {
                        OFFSET 1.8737 -0.2304 -0.0886
                      }
                    }
                  }
                }
                JOINT LeftHandPinky1
                {
                  OFFSET 7.9094 -0.601089 -3.4825
                  CHANNELS 3 Zrotation Xrotation Yrotation
                  JOINT LeftHandPinky2
                  {
                    OFFSET 2.2874 -0.477005 -0.6314
                    CHANNELS 3 Zrotation Xrotation Yrotation
                    JOINT LeftHandPinky3
                    {
                      OFFSET 1.6774 -0.349396 -0.4633
                      CHANNELS 3 Zrotation Xrotation Yrotation
                      End Site
                      {
                        OFFSET 1.4888 -0.4091 -0.3416
                      }
                    }
                  }
                }
                JOINT LeftHandThumb1
                {
                  OFFSET 1.833 -1.3875 1.3896
                  CHANNELS 3 Zrotation Xrotation Yrotation
                  JOINT LeftHandThumb2
                  {
                    OFFSET 3.4129 -1.121 2.5732
                    CHANNELS 3 Zrotation Xrotation Yrotation
                    JOINT LeftHandThumb3
                    {
                      OFFSET 2.2474 -0.804199 1.6192
                      CHANNELS 3 Zrotation Xrotation Yrotation
                      End Site
                      {
                        OFFSET 1.6527 -0.5689 1.1317
                      }
                    }
                  }
                }
              }
            }
          }
        }
        JOINT RightShoulder
        {
          OFFSET -2.2086 21.1115 7.2329
          CHANNELS 3 Zrotation Xrotation Yrotation
          JOINT RightArm
          {
            OFFSET -13.1216 3.0287 -4.9007
            CHANNELS 3 Zrotation Xrotation Yrotation
            JOINT RightForeArm
            {
              OFFSET -27.4081 -0.0973053 -0.2375
              CHANNELS 3 Zrotation Xrotation Yrotation
              JOINT RightHand
              {
                OFFSET -22.8641 0.0664063 -0.1369
                CHANNELS 3 Zrotation Xrotation Yrotation
                JOINT RightHandIndex1
                {
                  OFFSET -8.8614 0.774994 2.4612
                  CHANNELS 3 Zrotation Xrotation Yrotation
                  JOINT RightHandIndex2
                  {
                    OFFSET -3.3146 -0.808304 0.5841
                    CHANNELS 3 Zrotation Xrotation Yrotation
                    JOINT RightHandIndex3
                    {
                      OFFSET -2.2628 -0.552002 0.3989
                      CHANNELS 3 Zrotation Xrotation Yrotation
                      End Site
                      {
                        OFFSET -1.6102 -0.4807 0.2612
                      }
                    }
                  }
                }
                JOINT RightHandMiddle1
                {
                  OFFSET -8.9937 0.894989 0.2143
                  CHANNELS 3 Zrotation Xrotation Yrotation
                  JOINT RightHandMiddle2
                  {
                    OFFSET -4.0984 0.0113983 -0.0242
                    CHANNELS 3 Zrotation Xrotation Yrotation
                    JOINT RightHandMiddle3
                    {
                      OFFSET -2.2716 0.00691223 -0.0138001
                      CHANNELS 3 Zrotation Xrotation Yrotation
                      End Site
                      {
                        OFFSET -2.0404 -0.1441 0.0027
                      }
                    }
                  }
                }
                JOINT RightHandRing1
                {
                  OFFSET -8.5234 0.597198 -2.0164
                  CHANNELS 3 Zrotation Xrotation Yrotation
                  JOINT RightHandRing2
                  {
                    OFFSET -3.7188 -0.188309 -0.2328
                    CHANNELS 3 Zrotation Xrotation Yrotation
                    JOINT RightHandRing3
                    {
                      OFFSET -2.1191 -0.106598 -0.1332
                      CHANNELS 3 Zrotation Xrotation Yrotation
                      End Site
                      {
                        OFFSET -1.8737 -0.2304 -0.0886
                      }
                    }
                  }
                }
                JOINT RightHandPinky1
                {
                  OFFSET -7.9094 -0.601105 -3.4825
                  CHANNELS 3 Zrotation Xrotation Yrotation
                  JOINT RightHandPinky2
                  {
                    OFFSET -2.2874 -0.477005 -0.6314
                    CHANNELS 3 Zrotation Xrotation Yrotation
                    JOINT RightHandPinky3
                    {
                      OFFSET -1.6774 -0.349396 -0.4633
                      CHANNELS 3 Zrotation Xrotation Yrotation
                      End Site
                      {
                        OFFSET -1.4888 -0.4091 -0.3416
                      }
                    }
                  }
                }
                JOINT RightHandThumb1
                {
                  OFFSET -1.833 -1.38751 1.3896
                  CHANNELS 3 Zrotation Xrotation Yrotation
                  JOINT RightHandThumb2
                  {
                    OFFSET -3.41299 -1.12099 2.5732
                    CHANNELS 3 Zrotation Xrotation Yrotation
                    JOINT RightHandThumb3
                    {
                      OFFSET -2.24741 -0.804108 1.6192
                      CHANNELS 3 Zrotation Xrotation Yrotation
                      End Site
                      {
                        OFFSET -1.6527 -0.5689 1.1317
                      }
                    }
                  }
                }
              }
            }
          }
        }
      }
    }
  }
  JOINT RightUpLeg
  {
    OFFSET -9.1966 3.8861 -0.7581
    CHANNELS 3 Zrotation Xrotation Yrotation
    JOINT RightLeg
    {
      OFFSET -0.7359 -41.0265 0
      CHANNELS 3 Zrotation Xrotation Yrotation
      JOINT RightFoot
      {
        OFFSET 0 -40.2855 0
        CHANNELS 3 Zrotation Xrotation Yrotation
        JOINT RightToeBase
        {
          OFFSET 0 -5.6122 11.7359
          CHANNELS 3 Zrotation Xrotation Yrotation
          End Site
          {
            OFFSET 0 0 7.8731
          }
        }
      }
    }
  }
  JOINT LeftUpLeg
  {
    OFFSET 9.1965 3.8864 -0.7581
    CHANNELS 3 Zrotation Xrotation Yrotation
    JOINT LeftLeg
    {
      OFFSET 0.7359 -41.0268 0
      CHANNELS 3 Zrotation Xrotation Yrotation
      JOINT LeftFoot
      {
        OFFSET 0 -40.2855 0
        CHANNELS 3 Zrotation Xrotation Yrotation
        JOINT LeftToeBase
        {
          OFFSET 0 -5.6122 11.7359
          CHANNELS 3 Zrotation Xrotation Yrotation
          End Site
          {
            OFFSET 0 0 7.8731
          }
        }
      }
    }
  }
}
MOTION
Frames:	7
Frame Time:	0.0333333
5.84602e-005 68.8428 3.50346 0 0 -0 0 0 -0 0 0 -0 0 0 -0 0 0 -0 0 0 -0 0 0 -0 0 0 -0 0 0 -0 0 0 -0 0 0 -0 0 0 -0 0 0 -0 0 0 -0 -0.0146107 -8.87603e-005 -2.63497e-007 2.99804e-018 -2.42657e-020 -1.42182e-022 0 0 -0 -0.0187562 -0.001176 5.858e-005 5.06224e-018 3.88251e-019 1.21329e-020 0 0 -0 -0.012269 -0.00324817 0.000675346 -1.74678e-018 3.88251e-019 -0 0 0 -0 0 0 -0 0 0 -0 0 0 -0 0 0 -0 0 0 -0 0 0 -0 0 0 -0 0 0 -0 0 0 -0 0 0 -0 0.0149955 -9.10982e-005 2.64101e-007 -9.69331e-018 1.21329e-020 -4.7394e-023 0 0 -0 0.0189956 -0.00119102 -5.96516e-005 -5.41541e-019 0 2.42657e-020 0 0 -0 0.0122698 -0.00324857 -0.000673756 -2.00796e-019 0 -1.94126e-019 0 0 -0 0 0 -0 0 0 -0 3.39842 1.33031 -0.0637918 -5.65207e-008 0.834868 -0.000436188 -3.39935 -2.16518 -0.0642563 -8.89002e-024 -1.18485e-023 -1.48106e-024 -3.39844 1.35642 0.0640283 -3.18788e-007 0.782166 -0.000588827 3.39931 -2.13858 0.0634662 1.1399e-023 0 -0 
1.63049 31.5012 -2.31711 0 28.997 -0 -0.051954 1.50946 -0.448954 -0.0921172 3.01928 -0.897004 -0.0921174 3.01929 -0.897004 -7.14094e-006 -19.0046 -9.70163e-006 6.29662e-008 0.361948 -5.28438e-008 -20.2176 -19.349 -30.9839 -44.4339 -1.86536 -10.1854 -40.9847 24.2794 -33.0484 50.8476 18.1624 26.0544 2.48629e-006 -4.59685e-007 3.0247e-006 -2.195e-006 -2.29189e-007 -3.43091e-006 2.195e-006 2.29189e-007 3.43091e-006 2.48629e-006 -4.59685e-007 3.0247e-006 -0.0146457 -8.57569e-005 5.92768e-007 2.19466e-006 2.28748e-007 3.43094e-006 2.48629e-006 -4.59685e-007 3.0247e-006 -0.0187291 -0.00117199 5.74e-005 2.19459e-006 2.28599e-007 3.43093e-006 2.48629e-006 -4.59685e-007 3.0247e-006 -0.0122718 -0.00324593 0.000670215 3.16277e-006 -8.64445e-007 5.20353e-006 2.48629e-006 -4.59685e-007 3.0247e-006 -2.195e-006 -2.29189e-007 -3.43091e-006 2.195e-006 2.29189e-007 3.43091e-006 18.9602 -20.1558 30.0731 45.4073 -1.67476 11.1162 38.853 22.9603 31.3741 -44.9967 16.28 -22.7828 3.18055e-015 -3.18055e-015 -0 -7.87441e-007 -2.39242e-006 -1.6557e-006 1.59028e-015 -9.54166e-015 -9.54166e-015 3.18055e-015 -3.18055e-015 -0 0.0149941 -9.13933e-005 2.83494e-006 1.59028e-015 1.27222e-014 -0 3.18055e-015 -3.18055e-015 -0 0.0189769 -0.00119176 -6.16797e-005 3.18055e-015 3.18055e-015 3.18055e-015 3.18055e-015 -3.18055e-015 -0 0.0122784 -0.00325157 -0.000679374 9.71471e-007 1.0929e-006 1.77535e-006 3.18055e-015 -3.18055e-015 -0 -7.87441e-007 -2.39242e-006 -1.6557e-006 1.59028e-015 -9.54166e-015 -9.54166e-015 -10.2481 -34.8539 -20.1847 -169.964 79.3652 167.407 21.7432 49.6526 -29.8105 -2.73266e-008 -2.71741e-008 -9.9507e-008 10.1002 -34.7933 20.0166 170.489 79.4638 -167.882 -21.1047 48.7701 29.239 1.40913e-007 -1.35992e-007 4.96316e-007 
1.63049 31.4896 -1.75473 0 27.3464 -0 -0.0603151 2.10344 -0.445363 -0.104359 4.20741 -0.889407 -0.104359 4.2074 -0.889407 0.0705455 -18.8982 0.0117296 -1.77865e-007 0.489029 -5.95383e-007 -19.9334 -19.9836 -30.894 -44.4339 -1.86535 -10.1854 -41.7463 24.7575 -33.5902 51.8284 18.6359 25.7376 9.61906e-007 -1.09637e-006 1.77887e-006 -7.61269e-007 8.06815e-008 6.91284e-007 -1.59028e-015 9.54166e-015 3.18055e-015 9.61906e-007 -1.09637e-006 1.77887e-006 -0.0146038 -8.72513e-005 -4.4628e-006 -9.63883e-007 1.09659e-006 -1.77873e-006 9.61906e-007 -1.09637e-006 1.77887e-006 -0.0187665 -0.00117875 5.95756e-005 -1.59028e-015 6.36111e-015 9.54166e-015 9.61906e-007 -1.09637e-006 1.77887e-006 -0.0122538 -0.00324245 0.00066945 -4.77083e-015 -3.18055e-015 -0 9.61906e-007 -1.09637e-006 1.77887e-006 -7.61269e-007 8.06815e-008 6.91284e-007 -1.59028e-015 9.54166e-015 3.18055e-015 18.6764 -20.7783 29.9891 45.4073 -1.67476 11.1162 39.6555 23.4414 31.9689 -45.9939 16.6334 -22.5209 2.16927e-006 -2.54512e-006 1.0809e-006 -7.95139e-015 3.18055e-015 -0 -8.52011e-007 2.49432e-007 3.56655e-006 2.16927e-006 -2.54512e-006 1.0809e-006 0.0150321 -9.16507e-005 1.30288e-007 -3.15384e-006 -1.50714e-006 6.74042e-007 2.16927e-006 -2.54512e-006 1.0809e-006 0.0189759 -0.00119172 -6.07708e-005 -8.52145e-007 2.50032e-007 3.56652e-006 2.16927e-006 -2.54512e-006 1.0809e-006 0.0122929 -0.00325348 -0.000680386 -8.52022e-007 2.49838e-007 3.56656e-006 2.16927e-006 -2.54512e-006 1.0809e-006 -7.95139e-015 3.18055e-015 -0 -8.52011e-007 2.49432e-007 3.56655e-006 -9.84838 -32.6503 -19.5917 -169.53 80.0558 167.009 21.7119 49.6517 -29.7715 5.48553e-008 5.43085e-008 1.98971e-007 9.70203 -32.5891 19.4261 170.094 80.1554 -167.522 -21.0745 48.7693 29.2008 1.69703e-007 -1.63053e-007 5.95449e-007 
1.6305 31.4845 -1.19133 0 25.6901 -0 -0.0686773 2.6996 -0.441514 -0.116694 5.39968 -0.881256 -0.116694 5.39966 -0.881256 0.141059 -18.7925 0.0233385 -3.45966e-008 0.616126 -4.4384e-007 -19.6467 -20.6183 -30.8004 -44.4339 -1.86536 -10.1854 -42.5073 25.2431 -34.128 52.8161 19.1048 25.4109 -1.59028e-015 6.36111e-015 3.18055e-015 -2.91964e-007 6.88863e-007 4.0576e-007 6.36111e-015 -9.54166e-015 6.36111e-015 -1.59028e-015 6.36111e-015 3.18055e-015 -0.0145851 -8.87569e-005 -5.58111e-006 3.18055e-015 -9.54166e-015 9.54166e-015 -1.59028e-015 6.36111e-015 3.18055e-015 -0.0187676 -0.00118063 6.40332e-005 -9.60567e-007 1.09885e-006 -1.78409e-006 -1.59028e-015 6.36111e-015 3.18055e-015 -0.0122575 -0.00324586 0.00067521 3.18055e-015 3.18055e-015 -0 -1.59028e-015 6.36111e-015 3.18055e-015 -2.91964e-007 6.88863e-007 4.0576e-007 6.36111e-015 -9.54166e-015 6.36111e-015 18.3904 -21.4007 29.9014 45.4073 -1.67476 11.1162 40.4572 23.9311 32.5596 -46.9959 16.9828 -22.2517 -5.59259e-007 9.39043e-007 3.15874e-006 -3.18983e-007 -3.00303e-006 -1.93846e-006 -8.52006e-007 2.51049e-007 3.5655e-006 -5.59259e-007 9.39043e-007 3.15874e-006 0.0150195 -9.29247e-005 1.90463e-006 -8.52139e-007 2.51517e-007 3.56546e-006 -5.59259e-007 9.39043e-007 3.15874e-006 0.0189864 -0.00119563 -6.61326e-005 -8.52141e-007 2.5165e-007 3.56546e-006 -5.59259e-007 9.39043e-007 3.15874e-006 0.0122858 -0.00325508 -0.000677514 -8.52018e-007 2.51456e-007 3.5655e-006 -5.59259e-007 9.39043e-007 3.15874e-006 -3.18983e-007 -3.00303e-006 -1.93846e-006 -8.52006e-007 2.51049e-007 3.5655e-006 -9.47979 -30.4293 -19.0265 -169.031 80.7461 166.546 21.6809 49.6505 -29.7328 -1.73598e-007 4.54008e-007 3.89469e-007 9.33481 -30.3674 18.8633 169.639 80.8473 -167.103 -21.0445 48.7684 29.1629 -3.37376e-006 1.45026e-007 2.13562e-007 
1.6305 31.4859 -0.627206 0 24.029 -0 -0.0770404 3.2975 -0.437403 -0.129136 6.59551 -0.87253 -0.129136 6.59553 -0.87253 0.211508 -18.686 0.0347934 3.17656e-007 0.743258 -8.46221e-007 -19.3576 -21.2527 -30.7028 -44.4339 -1.86536 -10.1854 -43.2675 25.7359 -34.6615 53.8105 19.5689 25.0744 4.89169e-007 -1.70579e-006 2.0695e-006 -1.61048e-006 -1.61104e-007 4.25254e-006 1.96929e-007 -1.01693e-006 2.47508e-006 4.89169e-007 -1.70579e-006 2.0695e-006 -0.0146277 -8.68674e-005 -4.05159e-006 1.9785e-007 -1.01724e-006 2.47495e-006 4.89169e-007 -1.70579e-006 2.0695e-006 -0.0187186 -0.00117635 5.97643e-005 1.9813e-007 -1.01726e-006 2.47491e-006 4.89169e-007 -1.70579e-006 2.0695e-006 -0.0122944 -0.00325552 0.000676681 -7.58454e-007 8.31755e-008 6.86022e-007 4.89169e-007 -1.70579e-006 2.0695e-006 -1.61048e-006 -1.61104e-007 4.25254e-006 1.96929e-007 -1.01693e-006 2.47508e-006 18.1019 -22.0231 29.8099 45.4073 -1.67475 11.1162 41.2576 24.4291 33.1461 -48.0025 17.3281 -21.9754 -5.86685e-007 -1.37523e-006 8.14051e-007 9.54166e-015 -1.27222e-014 -0 5.58475e-007 -9.40486e-007 -3.15749e-006 -5.86685e-007 -1.37523e-006 8.14051e-007 0.0149749 -9.15838e-005 1.95785e-007 5.58617e-007 -9.40899e-007 -3.15737e-006 -5.86685e-007 -1.37523e-006 8.14051e-007 0.0190356 -0.00119328 -6.14243e-005 -1.44736e-006 -2.0085e-006 -6.43458e-006 -5.86685e-007 -1.37523e-006 8.14051e-007 0.0121975 -0.00323055 -0.000675216 5.58509e-007 -9.4085e-007 -3.15741e-006 -5.86685e-007 -1.37523e-006 8.14051e-007 9.54166e-015 -1.27222e-014 -0 5.58475e-007 -9.40486e-007 -3.15749e-006 -9.13988 -28.1926 -18.4865 -168.452 81.4365 166.003 21.6501 49.6493 -29.6944 2.76113e-008 2.71085e-008 9.94492e-008 8.99569 -28.1319 18.3253 169.114 81.5377 -166.612 -21.0147 48.7672 29.1253 1.53665e-006 2.01182e-006 -6.08665e-007 
1.6305 31.494 -0.0626574 0 22.3636 -0 -0.0854052 3.89698 -0.433032 -0.141701 7.79452 -0.863233 -0.141701 7.7945 -0.863233 0.281891 -18.5791 0.0461087 -8.91639e-008 0.870422 2.04599e-007 -19.066 -21.887 -30.6014 -44.4339 -1.86536 -10.1854 -44.0267 26.2357 -35.1907 54.8118 20.0278 24.728 -1.59028e-015 6.36111e-015 -9.54166e-015 -4.77083e-015 3.18055e-015 -9.54166e-015 -6.36111e-015 -3.18055e-015 -3.18055e-015 -1.59028e-015 6.36111e-015 -9.54166e-015 -0.0146146 -8.78109e-005 -3.81558e-006 7.95139e-015 3.18055e-015 -0 -1.59028e-015 6.36111e-015 -9.54166e-015 -0.0187356 -0.00117313 5.98476e-005 1.59028e-015 1.27222e-014 3.18055e-015 -1.59028e-015 6.36111e-015 -9.54166e-015 -0.0122638 -0.00324708 0.000676674 7.95139e-015 1.59028e-014 -9.54166e-015 -1.59028e-015 6.36111e-015 -9.54166e-015 -4.77083e-015 3.18055e-015 -9.54166e-015 -6.36111e-015 -3.18055e-015 -3.18055e-015 17.8109 -22.6452 29.7146 45.4073 -1.67476 11.1162 42.0568 24.9354 33.728 -49.0138 17.6689 -21.692 -2.93881e-007 -6.87236e-007 4.07338e-007 -4.77083e-015 -9.54166e-015 -0 -2.93881e-007 -6.87236e-007 4.07338e-007 -2.93881e-007 -6.87236e-007 4.07338e-007 0.0150016 -9.23431e-005 -2.37576e-006 -2.93872e-007 -6.87183e-007 4.07428e-007 -2.93881e-007 -6.87236e-007 4.07338e-007 0.0190073 -0.00118826 -5.43779e-005 -2.93866e-007 -6.87169e-007 4.07455e-007 -2.93881e-007 -6.87236e-007 4.07338e-007 0.0122602 -0.00324435 -0.000678558 -2.93859e-007 -6.87196e-007 4.0742e-007 -2.93881e-007 -6.87236e-007 4.07338e-007 -4.77083e-015 -9.54166e-015 -0 -2.93881e-007 -6.87236e-007 4.07338e-007 -8.8262 -25.9431 -17.969 -167.774 82.1257 165.359 21.6194 49.6478 -29.6562 -5.53912e-008 -5.41656e-008 -1.98868e-007 8.68301 -25.8822 17.81 168.494 82.2284 -166.026 -20.9851 48.766 29.0881 -5.71051e-008 5.41902e-008 -1.98379e-007 
1.6305 31.5087 0.502004 0 20.6947 -0 -0.0937725 4.49777 -0.428398 -0.154405 8.99611 -0.853349 -0.154405 8.9961 -0.853349 0.35224 -18.4728 0.0572832 -6.04329e-007 0.997602 5.32341e-007 -18.7717 -22.521 -30.496 -44.4339 -1.86536 -10.1854 -44.7849 26.7423 -35.7154 55.8197 20.4813 24.3718 1.59028e-015 6.36111e-015 -0 -2.92665e-007 6.88869e-007 4.0529e-007 3.18055e-015 0 -3.18055e-015 1.59028e-015 6.36111e-015 -0 -0.0145994 -9.13305e-005 -1.13541e-007 6.36111e-015 -3.18055e-015 6.36111e-015 1.59028e-015 6.36111e-015 -0 -0.0187265 -0.0011752 5.89582e-005 -1.59028e-015 6.36111e-015 -1.27222e-014 1.59028e-015 6.36111e-015 -0 -0.0122577 -0.00324506 0.000674746 1.59028e-015 6.36111e-015 -3.18055e-015 1.59028e-015 6.36111e-015 -0 -2.92665e-007 6.88869e-007 4.0529e-007 3.18055e-015 0 -3.18055e-015 17.5174 -23.2672 29.6153 45.4073 -1.67476 11.1162 42.8547 25.4496 34.3053 -50.0296 18.0052 -21.4015 -8.83089e-007 -2.06056e-006 1.22309e-006 8.50868e-007 -2.57076e-007 -3.56281e-006 -5.88726e-007 -1.37371e-006 8.15392e-007 -8.83089e-007 -2.06056e-006 1.22309e-006 0.0149801 -9.20593e-005 -5.95829e-006 -5.88708e-007 -1.3736e-006 8.15572e-007 -8.83089e-007 -2.06056e-006 1.22309e-006 0.0190082 -0.00119204 -6.16799e-005 -5.88695e-007 -1.37357e-006 8.15626e-007 -8.83089e-007 -2.06056e-006 1.22309e-006 0.0122197 -0.00323563 -0.000674005 -5.88681e-007 -1.37363e-006 8.15554e-007 -8.83089e-007 -2.06056e-006 1.22309e-006 8.50868e-007 -2.57076e-007 -3.56281e-006 -5.88726e-007 -1.37371e-006 8.15392e-007 -8.53701 -23.6821 -17.4722 -166.967 82.8139 164.587 21.5891 49.6462 -29.6184 -8.33281e-008 -8.11659e-008 -2.9826e-007 8.39473 -23.6206 17.3152 167.754 82.9185 -165.321 -20.9557 48.7645 29.0511 1.59028e-015 9.54166e-015 3.18055e-015 
